/* XPM */
static char *result[] = {
/* columns rows colors chars-per-pixel */
"64 64 5 1 ",
"  c black",
". c #5ACBFF",
"X c #A5EBFF",
"o c #FFFBFF",
"O c None",
/* pixels */
"OOOOOOOOOOOOOO              OOOOOOOO              OOOOOOOOOOOOOO",
"OOOOOOOOOOOOOO              OOOOOOOO              OOOOOOOOOOOOOO",
"OOOOOOOOOO    oooooooooooooo        ooooooooooXXXX    OOOOOOOOOO",
"OOOOOOOOOO    oooooooooooooo        ooooooooooXXXX    OOOOOOOOOO",
"OOOOOOOO  ooooooooooooooooooooooooooooooooooooooooXX..  OOOOOOOO",
"OOOOOOOO  ooooooooooooooooooooooooooooooooooooooooXX..  OOOOOOOO",
"OOOOOO  ooooooooooooooooooooooooooooooooooooooooooooXX..  OOOOOO",
"OOOOOO  ooooooooooooooooooooooooooooooooooooooooooooXX..  OOOOOO",
"OOOOOO  ooooooooooooooooooooooooooooooooooooooooooooXX..  OOOOOO",
"OOOOOO  ooooooooooooooooooooooooooooooooooooooooooooXX..  OOOOOO",
"OOOO  ooooooooooooooooooooooooooooooooooooooooooooooXXXX..  OOOO",
"OOOO  ooooooooooooooooooooooooooooooooooooooooooooooXXXX..  OOOO",
"OOOO  ooooooooooooooooooooooooooooooooooooooooooooooXXXX..  OOOO",
"OOOO  ooooooooooooooooooooooooooooooooooooooooooooooXXXX..  OOOO",
"OOOO  ooooooooooooooooooooooooooooooooooooooooooooooXXXX..  OOOO",
"OOOO  ooooooooooooooooooooooooooooooooooooooooooooooXXXX..  OOOO",
"OOOO  ooooooooooooooooooooooooooooooooooooooooooooooooXX..  OOOO",
"OOOO  ooooooooooooooooooooooooooooooooooooooooooooooooXX..  OOOO",
"OO  ooooooooooooooooooooooooooooooooooooooooooooooooooXX....  OO",
"OO  ooooooooooooooooooooooooooooooooooooooooooooooooooXX....  OO",
"OO  oooooooooooooooooooo  oooooooooooo  ooooooooooooooXX....  OO",
"OO  oooooooooooooooooooo  oooooooooooo  ooooooooooooooXX....  OO",
"OO  oooooooooooooooooooo  oooooooooooo  ooooooooooooooXX....  OO",
"OO  oooooooooooooooooooo  oooooooooooo  ooooooooooooooXX....  OO",
"  oooooooooooooooooooooo  oooooooooooo  ooooooooooooooXXXX....  ",
"  oooooooooooooooooooooo  oooooooooooo  ooooooooooooooXXXX....  ",
"  oooooooooooooooooooooo  oooooooooooo  ooooooooooooooXXXX....  ",
"  oooooooooooooooooooooo  oooooooooooo  ooooooooooooooXXXX....  ",
"  oooooooooooooooooooooo  oooooooooooo  ooooooooooooooXXXX....  ",
"  oooooooooooooooooooooo  oooooooooooo  ooooooooooooooXXXX....  ",
"  ooooooooooooooooooooooooooooooooooooooooooooooooooooXXXX....  ",
"  ooooooooooooooooooooooooooooooooooooooooooooooooooooXXXX....  ",
"  ooooooooooooooooooooooooooooooooooooooooooooooooooooXXXX....  ",
"  ooooooooooooooooooooooooooooooooooooooooooooooooooooXXXX....  ",
"  ooooooooooooooooooooooooooooooooooooooooooooooooooooXXXX....  ",
"  ooooooooooooooooooooooooooooooooooooooooooooooooooooXXXX....  ",
"  XXoooooooooooooo  oooooooooooooooooooooooo  ooooooooXXXX....  ",
"  XXoooooooooooooo  oooooooooooooooooooooooo  ooooooooXXXX....  ",
"  XXoooooooooooooo  oooooooooooooooooooooooo  ooooooooXXXX....  ",
"  XXoooooooooooooo  oooooooooooooooooooooooo  ooooooooXXXX....  ",
"OO  oooooooooooooooo  oooooooooooooooooooo  ooooooooXXXX....  OO",
"OO  oooooooooooooooo  oooooooooooooooooooo  ooooooooXXXX....  OO",
"OO  XXoooooooooooooooo    oooooooooooo    ooooooooooXXXX....  OO",
"OO  XXoooooooooooooooo    oooooooooooo    ooooooooooXXXX....  OO",
"OO  XXoooooooooooooooooooo            ooooooooooooooXXXX....  OO",
"OO  XXoooooooooooooooooooo            ooooooooooooooXXXX....  OO",
"OOOO  XXooooooooooooooooooooooooooooooooooooooooooXXXX....  OOOO",
"OOOO  XXooooooooooooooooooooooooooooooooooooooooooXXXX....  OOOO",
"OOOO  XXooooooooooooooooooooooooooooooooooooooooooXXXX....  OOOO",
"OOOO  XXooooooooooooooooooooooooooooooooooooooooooXXXX....  OOOO",
"OOOO  XXXXooooooooooooooooXXXXXXXXooooooooooooooXXXXXX....  OOOO",
"OOOO  XXXXooooooooooooooooXXXXXXXXooooooooooooooXXXXXX....  OOOO",
"OOOO  ..XXXXXXooooooooXXXXXXXXXXXXXXXXooooooXXXXXXXX......  OOOO",
"OOOO  ..XXXXXXooooooooXXXXXXXXXXXXXXXXooooooXXXXXXXX......  OOOO",
"OOOOOO  ..XXXXXXXXXXXXXXXX........XXXXXXXXXXXXXXXX......  OOOOOO",
"OOOOOO  ..XXXXXXXXXXXXXXXX........XXXXXXXXXXXXXXXX......  OOOOOO",
"OOOOOO  ......XXXXXXXX................XXXXXXXX..........  OOOOOO",
"OOOOOO  ......XXXXXXXX................XXXXXXXX..........  OOOOOO",
"OOOOOOOO  ..................        ..................  OOOOOOOO",
"OOOOOOOO  ..................        ..................  OOOOOOOO",
"OOOOOOOOOO    ..........    OOOOOOOO    ..........    OOOOOOOOOO",
"OOOOOOOOOO    ..........    OOOOOOOO    ..........    OOOOOOOOOO",
"OOOOOOOOOOOOOO          OOOOOOOOOOOOOOOO          OOOOOOOOOOOOOO",
"OOOOOOOOOOOOOO          OOOOOOOOOOOOOOOO          OOOOOOOOOOOOOO"
};
