/* XPM */
static char *result[] = {
/* columns rows colors chars-per-pixel */
"64 64 6 1 ",
"  c black",
". c #A57118",
"X c #84494A",
"o c #D69239",
"O c #FFAA6B",
"+ c #FFFBFF",
/* pixels */
"                                                                ",
"                                                                ",
"  XXOOOOOOOOOOOOOOOOOOOOOOOOOO    OOOOOOOOOOOOOOOOOOOOOOOOOOXX  ",
"  XXOOOOOOOOOOOOOOOOOOOOOOOOOO    OOOOOOOOOOOOOOOOOOOOOOOOOOXX  ",
"  XX........................OO    OO........................XX  ",
"  XX........................OO    OO........................XX  ",
"  XX..OOOOOOOO....OOOOOOOO..OO    OO..OOOOOOOO....OOOOOOOO..XX  ",
"  XX..OOOOOOOO....OOOOOOOO..OO    OO..OOOOOOOO....OOOOOOOO..XX  ",
"  XX..OO....OO....OO....OO..OO    OO..OO....OO....OO....OO..XX  ",
"  XX..OO....OO....OO....OO..OO    OO..OO....OO....OO....OO..XX  ",
"  XX..OOooooOO....OOooooOO..OO    OO..OOooooOO....OOooooOO..XX  ",
"  XX..OOooooOO....OOooooOO..OO    OO..OOooooOO....OOooooOO..XX  ",
"  XX..OOooooOO....OOooooOO..OO    OO..OOooooOO....OOooooOO..XX  ",
"  XX..OOooooOO....OOooooOO..OO    OO..OOooooOO....OOooooOO..XX  ",
"  XX..OOooooOO....OOooooOO..OO    OO..OOooooOO....OOooooOO..XX  ",
"  XX..OOooooOO....OOooooOO..OO    OO..OOooooOO....OOooooOO..XX  ",
"  XX..OOooooOO....OOooooOO..OO    OO..OOooooOO....OOooooOO..XX  ",
"  XX..OOooooOO....OOooooOO..OO    OO..OOooooOO....OOooooOO..XX  ",
"  XX..OOooooOO....OOooooOO..OO    OO..OOooooOO....OOooooOO..XX  ",
"  XX..OOooooOO....OOooooOO..OO    OO..OOooooOO....OOooooOO..XX  ",
"  XX..OOOOOOOO....OOOOOOOO..OO    OO..OOOOOOOO....OOOOOOOO..XX  ",
"  XX..OOOOOOOO....OOOOOOOO..OO    OO..OOOOOOOO....OOOOOOOO..XX  ",
"  XX........................OO    OO........................XX  ",
"  XX........................OO    OO........................XX  ",
"  XXOOOOOOOOOOOOOOOOOOOOOOOO++    ++OOOOOOOOOOOOOOOOOOOOOOOOXX  ",
"  XXOOOOOOOOOOOOOOOOOOOOOOOO++    ++OOOOOOOOOOOOOOOOOOOOOOOOXX  ",
"  XXooooooooooooooooooooooooOO    OOooooooooooooooooooooooooXX  ",
"  XXooooooooooooooooooooooooOO    OOooooooooooooooooooooooooXX  ",
"  XXooooooooooOOoooooo..++++OO    OO++++..ooooooOOooooooooooXX  ",
"  XXooooooooooOOoooooo..++++OO    OO++++..ooooooOOooooooooooXX  ",
"  XXooooooOOooooOOooooXX++++OO    OO++++XXooooOOooooOOooooooXX  ",
"  XXooooooOOooooOOooooXX++++OO    OO++++XXooooOOooooOOooooooXX  ",
"  XXooooooooOOooooOOooXXXX..OO    OO..XXXXooOOooooOOooooooooXX  ",
"  XXooooooooOOooooOOooXXXX..OO    OO..XXXXooOOooooOOooooooooXX  ",
"  XX..........oo....oo......OO    OO......oo....oo..........XX  ",
"  XX..........oo....oo......OO    OO......oo....oo..........XX  ",
"  XXXXXXXXXXXXXXXXXXXXXXXXXXXX    XXXXXXXXXXXXXXXXXXXXXXXXXXXX  ",
"  XXXXXXXXXXXXXXXXXXXXXXXXXXXX    XXXXXXXXXXXXXXXXXXXXXXXXXXXX  ",
"  XX........................OO    OO........................XX  ",
"  XX........................OO    OO........................XX  ",
"  XX..OOOOOOOO....OOOOOOOO..OO    OO..OOOOOOOO....OOOOOOOO..XX  ",
"  XX..OOOOOOOO....OOOOOOOO..OO    OO..OOOOOOOO....OOOOOOOO..XX  ",
"  XX..OO....OO....OO....OO..OO    OO..OO....OO....OO....OO..XX  ",
"  XX..OO....OO....OO....OO..OO    OO..OO....OO....OO....OO..XX  ",
"  XX..OOooooOO....OOooooOO..OO    OO..OOooooOO....OOooooOO..XX  ",
"  XX..OOooooOO....OOooooOO..OO    OO..OOooooOO....OOooooOO..XX  ",
"  XX..OOooooOO....OOooooOO..OO    OO..OOooooOO....OOooooOO..XX  ",
"  XX..OOooooOO....OOooooOO..OO    OO..OOooooOO....OOooooOO..XX  ",
"  XX..OOooooOO....OOooooOO..OO    OO..OOooooOO....OOooooOO..XX  ",
"  XX..OOooooOO....OOooooOO..OO    OO..OOooooOO....OOooooOO..XX  ",
"  XX..OOooooOO....OOooooOO..OO    OO..OOooooOO....OOooooOO..XX  ",
"  XX..OOooooOO....OOooooOO..OO    OO..OOooooOO....OOooooOO..XX  ",
"  XX..OOooooOO....OOooooOO..OO    OO..OOooooOO....OOooooOO..XX  ",
"  XX..OOooooOO....OOooooOO..OO    OO..OOooooOO....OOooooOO..XX  ",
"  XX..OOooooOO....OOooooOO..OO    OO..OOooooOO....OOooooOO..XX  ",
"  XX..OOooooOO....OOooooOO..OO    OO..OOooooOO....OOooooOO..XX  ",
"  XX..OOOOOOOO....OOOOOOOO..OO    OO..OOOOOOOO....OOOOOOOO..XX  ",
"  XX..OOOOOOOO....OOOOOOOO..OO    OO..OOOOOOOO....OOOOOOOO..XX  ",
"  XX........................OO    OO........................XX  ",
"  XX........................OO    OO........................XX  ",
"  XXXXXXXXXXXXXXXXXXXXXXXXXXXX    XXXXXXXXXXXXXXXXXXXXXXXXXXXX  ",
"  XXXXXXXXXXXXXXXXXXXXXXXXXXXX    XXXXXXXXXXXXXXXXXXXXXXXXXXXX  ",
"                                                                ",
"                                                                "
};
