/* XPM */
static char *result[] = {
/* columns rows colors chars-per-pixel */
"32 48 241 2 ",
"   c #010000",
".  c #0C0401",
"X  c #060909",
"o  c #150A00",
"O  c #180706",
"+  c #181308",
"@  c #00001C",
"#  c #050B12",
"$  c #07141A",
"%  c #121315",
"&  c #191B1B",
"*  c #170B11",
"=  c #21000A",
"-  c #290805",
";  c #300700",
":  c #281403",
">  c #361B01",
",  c #211C1A",
"<  c #361D17",
"1  c #3F001C",
"2  c #27211A",
"3  c #3C220A",
"4  c #000232",
"5  c #03083A",
"6  c #171D22",
"7  c #1A272A",
"8  c #2D2D2C",
"9  c #252424",
"0  c #322E2A",
"q  c #3D3224",
"w  c #273537",
"e  c #343433",
"r  c #353B3C",
"t  c #3C3E3D",
"y  c #303738",
"u  c #292E32",
"i  c #560500",
"p  c #441605",
"a  c #480609",
"s  c #630300",
"d  c #760702",
"f  c #73100F",
"g  c #4C2301",
"h  c #442509",
"j  c #522400",
"k  c #5B2B01",
"l  c #562A04",
"z  c #563512",
"x  c #672C03",
"c  c #643000",
"v  c #6C3404",
"b  c #763801",
"n  c #623513",
"m  c #590021",
"M  c #7E0024",
"N  c #794A1B",
"B  c #63401B",
"V  c #70502D",
"C  c #5F4B31",
"Z  c #0B0D4F",
"A  c #373E41",
"S  c #010A67",
"D  c #010275",
"F  c #01047C",
"G  c #121A72",
"H  c #3C0776",
"J  c #282476",
"K  c #362B71",
"L  c #3B0D44",
"P  c #70034B",
"I  c #4B0D75",
"U  c #6F2061",
"Y  c #3E4142",
"T  c #374248",
"R  c #414445",
"E  c #4B4C4C",
"W  c #454849",
"Q  c #4E5656",
"!  c #535252",
"~  c #595958",
"^  c #636E6E",
"/  c #797A7B",
"(  c #624D64",
")  c #850300",
"_  c #9A0A00",
"`  c #9A0D0F",
"'  c #A80B00",
"]  c #B40407",
"[  c #A51400",
"{  c #BA0615",
"}  c #AD130C",
"|  c #823E00",
" . c #803D0C",
".. c #A93213",
"X. c #820025",
"o. c #9A002A",
"O. c #980722",
"+. c #8B0637",
"@. c #A90624",
"#. c #AA1335",
"$. c #A4372B",
"%. c #C60504",
"&. c #D70A02",
"*. c #C81504",
"=. c #DA1905",
"-. c #C80C18",
";. c #D21C16",
":. c #E91B03",
">. c #FF1E00",
",. c #F71C01",
"<. c #E51009",
"1. c #FD2202",
"2. c #FF2905",
"3. c #FF2B09",
"4. c #F62204",
"5. c #FF300B",
"6. c #F73517",
"7. c #C53A2D",
"8. c #DA2405",
"9. c #894302",
"0. c #964A05",
"q. c #884911",
"w. c #A44A03",
"e. c #BA5B03",
"r. c #AF5A10",
"t. c #9D692D",
"y. c #AD7336",
"u. c #B66213",
"i. c #C45A02",
"p. c #D96B03",
"a. c #CF6A10",
"s. c #EB760D",
"d. c #FF583E",
"f. c #F84428",
"g. c #C7782A",
"h. c #D16124",
"j. c #E97D20",
"k. c #9C1C47",
"l. c #897351",
"z. c #8E6E6F",
"x. c #A86C76",
"c. c #FA5A40",
"v. c #F96F59",
"b. c #F57A66",
"n. c #D26A5E",
"m. c #B28A32",
"M. c #FF8A17",
"N. c #EABC04",
"B. c #CB8637",
"V. c #D69230",
"C. c #E78525",
"Z. c #FF962D",
"A. c #FC9B36",
"S. c #EF9133",
"D. c #FFA53C",
"F. c #D8AB1B",
"G. c #FFDB00",
"H. c #EFC001",
"J. c #FEFC01",
"K. c #FFF500",
"L. c #B8864F",
"P. c #A3AC6C",
"I. c #A19866",
"U. c #D09452",
"Y. c #ED9C47",
"T. c #FFA642",
"R. c #FFAE55",
"E. c #FFBB5B",
"W. c #F5AB52",
"Q. c #CF837A",
"!. c #FCB869",
"~. c #F8BC77",
"^. c #F8AF65",
"/. c #FFC469",
"(. c #FEC479",
"). c #FFD079",
"_. c #01048B",
"`. c #02089A",
"'. c #130E99",
"]. c #2A0F8E",
"[. c #382E8B",
"{. c #0818AE",
"}. c #0616A7",
"|. c #0919B2",
" X c #091CBC",
".X c #0117B5",
"XX c #000BA3",
"oX c #1926A7",
"OX c #0E2BAB",
"+X c #2A31B8",
"@X c #3D4288",
"#X c #605E9E",
"$X c #5666A6",
"%X c #0415D4",
"&X c #0D23CD",
"*X c #0D26DB",
"=X c #0F28DD",
"-X c #0923D6",
";X c #1429D9",
":X c #1D3BD4",
">X c #0418E4",
",X c #0B27E8",
"<X c #122CE8",
"1X c #1832EA",
"2X c #0D2FFF",
"3X c #1D3AFE",
"4X c #1D36F1",
"5X c #223CF7",
"6X c #2A43FF",
"7X c #2640FE",
"8X c #2044D6",
"9X c #5761C7",
"0X c #8A8F93",
"qX c #B1B7B8",
"wX c #A4ACA5",
"eX c #D2B795",
"rX c #CEB4A9",
"tX c #EA9688",
"yX c #FBC48B",
"uX c #FFD189",
"iX c #FFDA97",
"pX c #FFCE98",
"aX c #FFE098",
"sX c #FFDEA6",
"dX c #F1CFB9",
"fX c #FFE1A9",
"gX c #FFE9B8",
"hX c #ADB7C3",
"jX c #B6C4C4",
"kX c #C5D8D8",
"lX c #C3C5C4",
"zX c #E4DCD3",
"xX c #FFF3C4",
"cX c #FFEFC4",
"vX c #D9E6E4",
"bX c #D9F6F7",
"nX c #E6F6F8",
"mX c #FEFEFE",
"MX c #F4FAFA",
"NX c #E4EAEE",
"BX c None",
/* pixels */
"BXBXBXBXBXBXBXBXBXBXBXBX~ 8         & ! BXBXBXBXBXBXBXBXBXBXBXBX",
"BXBXBXBXBXBXBXBXBXBXE   # p ' ' ] [ f #   y BXBXBXBXBXBXBXBXBXBX",
"BXBXBXBXBXBXBXBXBXT 9 a i ' 3.v.b.f.*.i i < w BXBXBXBXBXBXBXBXBX",
"BXBXBXBXBXBXBXBXR 8 ; :.3.5.v.bXbXtX6.2.2.s & Y BXBXBXBXBXBXBXBX",
"BXBXBXBXBXBXBX! $ a :.2.,.b.bXmXmXnXeX>.3.,.) # E BXBXBXBXBXBXBX",
"BXBXBXBXBXBXW % 1 @.:.@.*.6.d.d.c.c.f.:.@.=.%.m % r BXBXBXBXBXBX",
"BXBXBXBXBXBXE   d -.{ -.:.>.>.>.1.1.1.2.-.{ -.}   r ~ BXBXBXBXBX",
"BXBXBXBXBXBXr * _ *.O.[ } =.,.,.4.1.:.} [ O.{ *.- 8 Y BXBXBXBXBX",
"BXBXBXBXBXBX  X.{ %.' . X a %.=.:.&.d     d %.] o.=   BXBXBXBXBX",
"BXBXBXBXBXBX. X.{ _ j i.C.v - Z.A.x ; C.s.b d %.o.=   BXBXBXBXBX",
"BXBXBXBXBXBX  X.@.} e.M.aXzXwX!.E.eXjXcXZ.a...@.o.=   BXBXBXBXBX",
"BXBXBXBXBXBX  X.X.$.D.~.rXhXrX(.(.eXqXqXyXT.h.X.o.= BXBXBXBXBXBX",
"BXBXBXBXBXBX  M f t.uXmXT   : !.(.V     NXcXU.x O.=   BXBXBXBXBX",
"BXBXBXBXBXr   g i.Z.yXmXW   < A.D.N   X NXgXY.p.v   7 ~ BXBXBXBX",
"BXBXBXBX# q L.9.w.C.iXmXT   + R.!.B   X nXcXS.e.| y.V # BXBXBXBX",
"BXBXBXBX  q iXq.r.V.Y.pXt.B z.gXsXI.C N yX^.V.g.b yXl.  BXBXBXBX",
"BXBXBXBX  q iXq.U.W.w.i.Z.).xXmXgXgXaXD.p.w.g.~.b ~.l.  BXBXBXBX",
"BXBXBXBX  3 A.s.W.U.j   L.iXfXaXsXfXaX^.+ - y.!.s.A.N   BXBXBXBX",
"BXBXBXBXR e > e.A.y.    z B./.uXuX).Y.N X   B T.p.j 9 R BXBXBXBX",
"BXBXBXBXBXA 7 > a.C.N     g N V V N k .   z g.C.k 2 w BXBXBXBXBX",
"BXBXBXBXBXBX! $ h a.S.z 3 +     X     3 h g.C.b % A BXBXBXBXBXBX",
"BXBXBXBXBXBXBX! 6 - 0.S.Z.0.  . .   g M.D.u.p # E BXBXBXBXBXBXBX",
"BXBXBXBXBXBXBXBXW 8 . o 0.p.j.S.S.C.p.i.> . & Y BXBXBXBXBXBXBXBX",
"BXBXBXBXBXBXBXBX~ y   S G k.7.$.7.7.$.K S @ & ~ E BXBXBXBXBXBXBX",
"BXBXBXBXBXBXBX! A < a &X>XH ] ] ] ] P %X>XL p w E E BXBXBXBXBXBX",
"BXBXBXBXBXBXE R & s ;.+X5XU ] ;.;.] k.8X8Xk._ * t E ! BXBXBXBXBX",
"BXBXBXBXBXBXE X _ <.` F.J.P.>X;X;X>X$XJ.N...{ 8.  A Q BXBXBXBXBX",
"BXBXBXBXBXT # [ ,.#.[.H.J.P.2X3X3X2X9XJ.G.( P ,.*.: 7 ~ BXBXBXBX",
"BXBXBXBXw 9 d 2.1.P OXH.J.I.3X6X6X3X$XJ.G.@X].&.3.[ < 7 BXBXBXBX",
"BXBXBXR , i 5.2.@.H OXm.F.0X3X6X6X5X9XF.F.@X].+.4.3.' O A BXBXBX",
"BXBXBX  i &.2.:.I |.|.*X5X6X7X6X6X6X6X6X<X X|.'.=.2.,._   BXBXBX",
"BXBX!   E Q.<.] H .X|.,X5X6X6X6X7X6X6X6X<X X.X'.O.&.n./   t BXBX",
"BXBX9 ~ jXzXQ.x.[..X|.<X1X5X6X6X6X6X6X1X1X X}.oXz.n.lXvX/ 8 BXBX",
"BXBX. hXmXmXnXvX9XXX|.&X-X1X5X5X4X7X4X*X&X XXXoXkXbXMXmXMX& BXBX",
"BXBX  lXmXmXmXmX#XD {.}.&X=X;X=X=X=X;X;X|.{._.J MXmXmXmXmX9 BXBX",
"BXBX  qXmXnXjXnXQ 4 |.{.|.|. X<X<X&X|.{.{. XS & NXlXvXmXNX& BXBX",
"BXBXe e 0XvXwXQ o 4 |.{.|.}.F Z 5 S XX{.OX XS X t 0XkXjXR e BXBX",
"BXBX! % Y ^ Q %   5  X{.}.S 4     @ S `.}. XS   X Y ^ ! % R BXBX",
"BXBXBX~ 9     E 2 4  X{._.4   BXBX  @ D }. XS X ! %   X E BXBXBX",
"BXBXBXBXBXBXBX! + 4 |.|._.4   BXBX  @ D }. XS . E BXBXBXBXBXBXBX",
"BXBXBXBXBXBXBXo G -X,X,X_.4 . BXBX  @ D -X,X=X}.% BXBXBXBXBXBXBX",
"BXBXBXBXBXBXE   Z [.K J |.S   BXBX  4 |.[.K K J   8 BXBXBXBXBXBX",
"BXBXBXBXBXBXr + l b c l [.G   BXBX  4 +Xp c b c o e R BXBXBXBXBX",
"BXBXBXBXBXBX  j 9.9.c c g :   BXBX  o j k c b 9.c o   BXBXBXBXBX",
"BXBXBXBXBXBX  h.0.k k g | p   BXBX  : 9.g j k v a.:   BXBXBXBXBX",
"BXBXBXBXBXBX8 h 0.e.0.b g : BXBXBXBXo p v 0.e.r.x 0 8 BXBXBXBXBX",
"BXBXBXBXBXBXE $ n r.9.c o BXBXBXBXBXBX  k b 0.q.$ A BXBXBXBXBXBX",
"BXBXBXBXBXBXBX! 6       BXBXBXBXBXBXBXBX      X E BXBXBXBXBXBXBX"
};
